<svg width="21" height="14" viewBox="0 0 21 14" fill="none" xmlns="http://www.w3.org/2000/svg">
<path fill-rule="evenodd" clip-rule="evenodd" d="M13.2341 3.11456H18.683V1.55347H13.2341V3.11456Z" fill="#F5F5F5"/>
<path fill-rule="evenodd" clip-rule="evenodd" d="M9.52631 2.30546C9.91465 2.83895 10.1094 3.47628 10.1094 4.21983C10.1094 4.98485 9.91465 5.60189 9.52147 6.06735C9.30129 6.32753 8.97828 6.56623 8.55123 6.78106C9.19967 7.01499 9.68842 7.38378 10.0211 7.88862C10.3502 8.39228 10.5159 9.00573 10.5159 9.7266C10.5159 10.4701 10.3272 11.1373 9.94852 11.7269C9.70899 12.1172 9.40896 12.4466 9.04845 12.7139C8.64318 13.0206 8.16531 13.2295 7.61245 13.3441C7.05958 13.4575 6.46195 13.5124 5.81593 13.5124H0.0864258V0.96875H6.23088C7.78181 0.991426 8.87908 1.4366 9.52631 2.30546ZM2.62099 3.14683V5.91454H5.71317C6.26362 5.91454 6.71245 5.81071 7.05845 5.60304C7.40202 5.39537 7.57502 5.02778 7.57502 4.50264C7.57502 3.91663 7.34758 3.53114 6.89271 3.34256C6.49832 3.21247 5.99747 3.14683 5.38895 3.14683H2.62099ZM2.62099 11.3354V7.99002H5.75189C6.29629 7.99479 6.72092 8.0664 7.02336 8.20246C7.56413 8.44713 7.8327 8.89469 7.8327 9.54872C7.8327 10.3197 7.55445 10.8401 6.99675 11.1146C6.69067 11.2614 6.25999 11.3354 5.70834 11.3354H2.62099Z" fill="#F5F5F5"/>
<path fill-rule="evenodd" clip-rule="evenodd" d="M19.8264 5.79764C19.4005 5.17225 18.8598 4.71395 18.2029 4.42513C17.5472 4.13511 16.8104 3.9895 15.9914 3.9895C14.6135 3.9895 13.4944 4.42035 12.6294 5.27609C11.7669 6.13421 11.335 7.36709 11.335 8.97472C11.335 10.6886 11.8116 11.9274 12.771 12.6877C13.7255 13.4491 14.83 13.8287 16.0821 13.8287C17.598 13.8287 18.7775 13.3775 19.6195 12.4764C20.1591 11.9083 20.4639 11.3486 20.5305 10.7996H18.0202C17.875 11.0717 17.7056 11.2841 17.5133 11.4381C17.1637 11.721 16.7076 11.863 16.1499 11.863C15.62 11.863 15.1687 11.746 14.7937 11.5133C14.1743 11.1397 13.8501 10.4869 13.809 9.55715H20.6599C20.6708 8.75631 20.6442 8.14047 20.5777 7.71559C20.4639 6.98875 20.2147 6.34904 19.8264 5.79764ZM13.8694 7.95673C13.9589 7.35282 14.1779 6.87423 14.5251 6.52096C14.8723 6.16769 15.3635 5.99105 15.9926 5.99105C16.5732 5.99105 17.0584 6.15694 17.4528 6.48993C17.8423 6.8253 18.0625 7.31225 18.1072 7.95673H13.8694Z" fill="#F5F5F5"/>
</svg>
