<svg width="21" height="25" viewBox="0 0 21 25" fill="none" xmlns="http://www.w3.org/2000/svg">
<path fill-rule="evenodd" clip-rule="evenodd" d="M15.3479 23.0648C15.3479 23.0648 14.4105 24.1042 10.7639 24.1042C7.11734 24.1042 6.13415 23.0667 6.13415 23.0667C6.86178 23.2015 7.12892 22.7509 7.12892 22.3663C7.12892 22.019 7.11541 20.872 7.10915 19.6552C3.05873 20.5361 2.20404 17.9372 2.20404 17.9372C1.54175 16.2541 0.587494 15.8066 0.587494 15.8066C-0.733471 14.9028 0.687067 14.9214 0.687067 14.9214C2.14907 15.0239 2.91889 16.4219 2.91889 16.4219C4.21744 18.648 6.32486 18.0045 7.15568 17.6324C7.28635 16.6915 7.66367 16.0487 8.08004 15.6853C4.84622 15.3171 1.44676 14.0685 1.44676 8.48903C1.44676 6.89926 2.01551 5.6003 2.94686 4.58056C2.79569 4.21356 2.29735 2.73279 3.0879 0.727075C3.0879 0.727075 4.3105 0.335722 7.09275 2.21967C8.25411 1.89703 9.49961 1.73524 10.7369 1.72969C11.9742 1.73524 13.2207 1.89703 14.3842 2.21967C17.1631 0.335722 18.384 0.727075 18.384 0.727075C19.1765 2.73279 18.6779 4.21356 18.5267 4.58056C19.4603 5.6003 20.0251 6.89926 20.0251 8.48903C20.0251 14.0818 16.6192 15.3132 13.3772 15.6737C13.8994 16.1256 14.3647 17.0117 14.3647 18.3703C14.3647 20.3184 14.3478 21.8864 14.3478 22.3663C14.3478 22.7538 14.6099 23.2078 15.3479 23.0648ZM1.69194 15.5951C1.65988 15.6677 1.54608 15.6891 1.44241 15.6395C1.33681 15.592 1.2775 15.4933 1.31173 15.4208C1.34308 15.3463 1.45711 15.3258 1.56247 15.3752C1.66831 15.4229 1.72859 15.5225 1.69194 15.5951M2.28164 16.2528C2.2122 16.3172 2.07646 16.2873 1.98436 16.1855C1.88913 16.084 1.87129 15.9482 1.94169 15.8829C2.0133 15.8185 2.14493 15.8487 2.24041 15.9502C2.33564 16.0529 2.35421 16.1877 2.28164 16.2528M2.85578 17.0916C2.76657 17.1536 2.62071 17.0955 2.53054 16.966C2.44133 16.8365 2.44133 16.6812 2.53247 16.619C2.62288 16.5568 2.76657 16.6127 2.85795 16.7412C2.94691 16.8726 2.94691 17.0282 2.85578 17.0916M3.64221 17.9018C3.56241 17.9898 3.39244 17.9662 3.26803 17.8461C3.14073 17.7287 3.10529 17.5621 3.18534 17.474C3.2661 17.3858 3.43704 17.4106 3.56241 17.5298C3.68874 17.6469 3.72732 17.8148 3.64221 17.9018M4.72707 18.3722C4.69187 18.4863 4.52816 18.5381 4.36325 18.4897C4.19858 18.4397 4.09081 18.3062 4.12409 18.1909C4.15832 18.0761 4.32275 18.0221 4.48886 18.074C4.65329 18.1236 4.7613 18.2562 4.72707 18.3722M5.91856 18.4594C5.92266 18.5795 5.78282 18.6791 5.60971 18.681C5.43564 18.6851 5.29484 18.5879 5.29291 18.4698C5.29291 18.3485 5.42961 18.2498 5.60369 18.247C5.77679 18.2436 5.91856 18.34 5.91856 18.4594M7.0274 18.2707C7.04813 18.3878 6.92782 18.5082 6.75592 18.54C6.58691 18.5711 6.43044 18.4988 6.40898 18.3825C6.38801 18.2625 6.51049 18.1421 6.67925 18.111C6.85139 18.0811 7.00546 18.1515 7.0274 18.2707" fill="#F5F5F5"/>
</svg>
