<svg width="22" height="21" viewBox="0 0 22 21" fill="none" xmlns="http://www.w3.org/2000/svg">
<path fill-rule="evenodd" clip-rule="evenodd" d="M16.4799 3.67279C15.7983 3.67279 15.2454 4.22513 15.2454 4.90693C15.2454 5.58851 15.7983 6.14149 16.4799 6.14149C17.1615 6.14149 17.7145 5.58851 17.7145 4.90693C17.7145 4.22534 17.1615 3.67236 16.4799 3.67236V3.67279Z" fill="#F5F5F5"/>
<path fill-rule="evenodd" clip-rule="evenodd" d="M5.70483 10.3986C5.70483 7.48084 8.07044 5.11523 10.9882 5.11523H10.9879C13.9057 5.11523 16.2706 7.48084 16.2706 10.3986C16.2706 13.3163 13.9059 15.6808 10.9882 15.6808C8.07044 15.6808 5.70483 13.3163 5.70483 10.3986ZM14.4174 10.3985C14.4174 8.50444 12.8819 6.96916 10.9881 6.96916C9.094 6.96916 7.55873 8.50444 7.55873 10.3985C7.55873 12.2924 9.094 13.8278 10.9881 13.8278C12.8819 13.8278 14.4174 12.2924 14.4174 10.3985Z" fill="#F5F5F5"/>
<path fill-rule="evenodd" clip-rule="evenodd" d="M6.746 0.172752C7.84339 0.122813 8.19404 0.110596 10.9881 0.110596H10.9849C13.7798 0.110596 14.1292 0.122813 15.2265 0.172752C16.3218 0.222907 17.0698 0.396303 17.7257 0.650717C18.403 0.913275 18.9752 1.26478 19.5475 1.83705C20.1198 2.4089 20.4713 2.98288 20.7349 3.65953C20.9878 4.31368 21.1614 5.06128 21.2129 6.15652C21.2622 7.25391 21.275 7.60456 21.275 10.3986C21.275 13.1927 21.2622 13.5425 21.2129 14.6398C21.1614 15.7347 20.9878 16.4825 20.7349 17.1368C20.4713 17.8133 20.1198 18.3873 19.5475 18.9591C18.9759 19.5314 18.4028 19.8837 17.7263 20.1465C17.0717 20.4009 16.3233 20.5743 15.228 20.6245C14.1307 20.6744 13.7811 20.6866 10.9868 20.6866C8.19297 20.6866 7.84253 20.6744 6.74514 20.6245C5.65011 20.5743 4.9023 20.4009 4.24773 20.1465C3.5715 19.8837 2.99752 19.5314 2.42589 18.9591C1.85383 18.3873 1.50233 17.8133 1.23934 17.1366C0.98514 16.4825 0.811744 15.7349 0.761376 14.6396C0.71165 13.5422 0.699219 13.1927 0.699219 10.3986C0.699219 7.60456 0.712079 7.2537 0.761161 6.15631C0.810458 5.06149 0.984068 4.31368 1.23913 3.65932C1.50276 2.98288 1.85426 2.4089 2.42653 1.83705C2.99838 1.265 3.57236 0.91349 4.24901 0.650717C4.90316 0.396303 5.65076 0.222907 6.746 0.172752ZM10.6453 1.96452C10.4373 1.96442 10.2445 1.96434 10.0653 1.96462V1.96205C8.14785 1.96419 7.78005 1.97705 6.83098 2.01992C5.8279 2.066 5.28328 2.23318 4.92063 2.37464C4.44052 2.56154 4.09759 2.78444 3.73751 3.14452C3.37743 3.50461 3.15409 3.84754 2.96762 4.32765C2.8268 4.6903 2.65919 5.23471 2.61333 6.23779C2.56403 7.32232 2.55417 7.64639 2.55417 10.3937C2.55417 13.141 2.56403 13.4668 2.61333 14.5514C2.65898 15.5544 2.8268 16.0989 2.96762 16.4611C3.15452 16.9414 3.37743 17.2835 3.73751 17.6436C4.09759 18.0036 4.44052 18.2265 4.92063 18.413C5.2835 18.5538 5.8279 18.7214 6.83098 18.7677C7.91551 18.817 8.24109 18.8278 10.9882 18.8278C13.7351 18.8278 14.0609 18.817 15.1454 18.7677C16.1485 18.7219 16.6933 18.5547 17.0556 18.4132C17.5359 18.2268 17.8777 18.0039 18.2378 17.6438C18.5979 17.2839 18.8212 16.942 19.0077 16.4619C19.1485 16.0997 19.3161 15.5553 19.362 14.5522C19.4113 13.4677 19.422 13.1419 19.422 10.3963C19.422 7.65068 19.4113 7.32489 19.362 6.24036C19.3164 5.23728 19.1485 4.69287 19.0077 4.33065C18.8208 3.85054 18.5979 3.50761 18.2378 3.14753C17.878 2.78744 17.5357 2.56454 17.0556 2.37807C16.6929 2.23725 16.1485 2.06964 15.1454 2.02377C14.0607 1.97448 13.7351 1.96462 10.9882 1.96462C10.8695 1.96462 10.7553 1.96457 10.6453 1.96452Z" fill="#F5F5F5"/>
</svg>
