<svg width="21" height="21" viewBox="0 0 21 21" fill="none" xmlns="http://www.w3.org/2000/svg">
<path fill-rule="evenodd" clip-rule="evenodd" d="M4.8212 6.99707H0.449707V20.1316H4.8212V6.99707Z" fill="#F5F5F5"/>
<path fill-rule="evenodd" clip-rule="evenodd" d="M5.10908 2.93401C5.0807 1.64617 4.15977 0.665283 2.6643 0.665283C1.16884 0.665283 0.191162 1.64617 0.191162 2.93401C0.191162 4.19516 1.13995 5.2043 2.60756 5.2043H2.6355C4.15977 5.2043 5.10908 4.19516 5.10908 2.93401Z" fill="#F5F5F5"/>
<path fill-rule="evenodd" clip-rule="evenodd" d="M20.5863 12.6005C20.5863 8.56613 18.4297 6.68848 15.5531 6.68848C13.2321 6.68848 12.1929 7.96332 11.6127 8.85765V6.99725H7.24072C7.29834 8.22973 7.24072 20.1318 7.24072 20.1318H11.6127V12.7964C11.6127 12.4038 11.6411 12.0122 11.7567 11.7312C12.0726 10.947 12.792 10.135 13.9997 10.135C15.5822 10.135 16.2148 11.3394 16.2148 13.1045V20.1314H20.5861L20.5863 12.6005Z" fill="#F5F5F5"/>
</svg>
