<svg width="19" height="17" viewBox="0 0 19 17" fill="none" xmlns="http://www.w3.org/2000/svg">
<path fill-rule="evenodd" clip-rule="evenodd" d="M9.08452 4.78798L9.125 5.45545L8.45036 5.37372C5.99466 5.06042 3.8493 3.99791 2.02777 2.21345L1.13724 1.32802L0.907861 1.98187C0.422119 3.43941 0.732454 4.97869 1.74442 6.01395C2.28413 6.58607 2.1627 6.6678 1.23169 6.32725C0.907861 6.21828 0.624512 6.13654 0.597526 6.17741C0.503076 6.27276 0.826904 7.51235 1.08327 8.00274C1.43408 8.68383 2.1492 9.35131 2.93179 9.74634L3.59294 10.0596L2.81035 10.0733C2.05475 10.0733 2.02777 10.0869 2.10872 10.3729C2.37858 11.2584 3.44452 12.1983 4.63189 12.6069L5.46844 12.893L4.73983 13.3289C3.6604 13.9555 2.39207 14.3097 1.12375 14.3369C0.516569 14.3505 0.017334 14.405 0.017334 14.4459C0.017334 14.5821 1.66346 15.3449 2.62145 15.6446C5.49543 16.53 8.90911 16.1486 11.4728 14.6366C13.2943 13.5605 15.1158 11.4218 15.9659 9.35131C16.4246 8.24793 16.8834 6.2319 16.8834 5.26474C16.8834 4.63814 16.9239 4.55641 17.6795 3.8072C18.1247 3.3713 18.543 2.89454 18.624 2.75832C18.7589 2.4995 18.7454 2.4995 18.0573 2.73108C16.9104 3.13973 16.7485 3.08525 17.3152 2.47226C17.7334 2.03636 18.2327 1.24629 18.2327 1.01472C18.2327 0.973855 18.0303 1.04196 17.8009 1.16456C17.558 1.30078 17.0183 1.50511 16.6135 1.6277L15.8849 1.85928L15.2238 1.40976C14.8595 1.16456 14.3467 0.892124 14.0769 0.810393C13.3887 0.619687 12.3363 0.64693 11.7156 0.86488C10.029 1.47786 8.96309 3.058 9.08452 4.78798Z" fill="#F5F5F5"/>
</svg>
