<svg width="24" height="24" viewBox="0 0 24 24" fill="none" xmlns="http://www.w3.org/2000/svg">
<path fill-rule="evenodd" clip-rule="evenodd" d="M11.7241 23.7736H11.7288C18.053 23.771 23.1966 18.6262 23.1991 12.3034C23.2003 9.23856 22.0083 6.35672 19.8427 4.1887C17.6771 2.02057 14.7972 0.826031 11.7287 0.824707C5.40639 0.824707 0.260793 5.97002 0.258277 12.2943C0.257416 14.3159 0.785599 16.2891 1.78938 18.0287L0.162109 23.9725L6.2427 22.3774C7.91807 23.2913 9.80438 23.7729 11.7241 23.7736ZM6.87261 20.5076L6.52448 20.301L2.91617 21.2475L3.87928 17.7295L3.6526 17.3687C2.69826 15.8509 2.19423 14.0965 2.19497 12.2951C2.19705 7.03861 6.47389 2.76216 11.7326 2.76216C14.2791 2.76304 16.6728 3.75595 18.4728 5.55802C20.2727 7.36009 21.2634 9.75534 21.2624 12.3028C21.2603 17.5596 16.9836 21.8365 11.7289 21.8365H11.725C10.0143 21.8359 8.33637 21.3762 6.87261 20.5076Z" fill="#F5F5F5"/>
<path fill-rule="evenodd" clip-rule="evenodd" d="M17.5075 15.031C17.4358 14.9115 17.2448 14.8398 16.9582 14.6962C16.6716 14.5528 15.2625 13.8595 14.9997 13.7638C14.7371 13.6682 14.5459 13.6204 14.3549 13.9072C14.1639 14.1941 13.6146 14.8398 13.4474 15.031C13.2802 15.2222 13.113 15.2463 12.8265 15.1028C12.5399 14.9593 11.6164 14.6567 10.5217 13.6802C9.66967 12.9202 9.09448 11.9817 8.92729 11.6948C8.76011 11.4079 8.90947 11.2528 9.05295 11.1099C9.18189 10.9814 9.33957 10.775 9.48287 10.6077C9.62616 10.4404 9.67392 10.3208 9.76946 10.1297C9.86499 9.9383 9.81723 9.77099 9.74557 9.62753C9.67392 9.48406 9.10074 8.07332 8.86191 7.49945C8.62925 6.94059 8.39298 7.0163 8.21707 7.00747C8.05008 6.99908 7.85881 6.99731 7.66776 6.99731C7.47671 6.99731 7.16619 7.06905 6.90349 7.35598C6.64079 7.64292 5.90039 8.33631 5.90039 9.74693C5.90039 11.1577 6.92736 12.5205 7.07067 12.7118C7.21396 12.9031 9.09163 15.7979 11.9667 17.0394C12.6505 17.3347 13.1843 17.511 13.6006 17.6431C14.2871 17.8613 14.912 17.8305 15.4058 17.7567C15.9565 17.6744 17.1014 17.0634 17.3404 16.394C17.5791 15.7244 17.5791 15.1505 17.5075 15.031Z" fill="#F5F5F5"/>
</svg>
