<svg width="546" height="388" viewBox="0 0 546 388" fill="none" xmlns="http://www.w3.org/2000/svg">
<mask id="mask0" mask-type="alpha" maskUnits="userSpaceOnUse" x="80" y="55" width="466" height="346">
<path d="M365.313 55C367.352 55 369.391 55 371.427 55.2266C396.563 57.9414 416.716 78.3047 419.208 103.641V104.547C421.243 130.789 437.321 153.414 461.098 163.594C495.743 178.527 538.313 209.973 544.653 274C547.598 304.992 536.954 335.082 514.309 358.613C487.591 386.668 447.966 402.051 408.563 400.016C342.895 396.621 314.591 359.066 302.364 328.297C292.852 304.316 265.68 292.324 241.68 301.602C227.641 307.031 215.864 309.52 206.356 309.52C137.063 309.52 80.4539 253.188 80.0008 183.957C79.7742 119.254 129.591 64.957 196.165 57.9414C235.114 53.8711 264.548 67.4453 282.438 79.8867C295.571 88.9375 313.235 86.4492 323.423 74.457C334.067 62.0156 349.462 55 365.313 55Z" fill="white"/>
</mask>
<g mask="url(#mask0)">
<path d="M550.7 404.52V50.4531H74.9539V404.52H550.7Z" fill="url(#paint0_linear)"/>
</g>
<path d="M285.313 0C287.352 0 289.391 5.06639e-07 291.427 0.226562C316.563 2.94141 336.716 23.3047 339.208 48.6406V49.5469C341.243 75.7891 357.321 98.4141 381.098 108.594C415.743 123.527 458.313 154.973 464.653 219C467.598 249.992 456.954 280.082 434.309 303.613C407.591 331.668 367.966 347.051 328.563 345.016C262.895 341.621 234.591 304.066 222.364 273.297C212.852 249.316 185.68 237.324 161.68 246.602C147.641 252.031 135.864 254.52 126.356 254.52C57.0633 254.52 0.453895 198.188 0.000769687 128.957C-0.225793 64.2539 49.5906 9.95703 116.165 2.94141C155.114 -1.12891 184.548 12.4453 202.438 24.8867C215.571 33.9375 233.235 31.4492 243.423 19.457C254.067 7.01562 269.462 0 285.313 0ZM335.356 342.977C372.04 342.977 407.817 328.047 432.501 302.254C454.692 279.18 465.106 249.77 462.161 219.227C456.048 156.105 414.157 125.336 379.966 110.633C355.509 100 338.981 76.6953 336.716 49.5469V48.6406C334.45 24.4336 315.204 4.97656 290.973 2.26172C273.54 0.226563 256.555 7.24219 245.462 20.3633C234.591 33.4844 215.571 35.9727 201.532 26.2461C183.868 14.2539 154.887 0.679687 116.618 4.75391C51.1766 11.7656 2.03983 64.9297 2.26639 128.504C2.49296 196.375 58.1961 251.805 126.356 251.805C135.637 251.805 147.188 249.09 160.774 243.887C185.907 234.383 214.438 246.828 224.177 271.938C236.177 302.254 264.028 338.906 328.337 342.301C330.829 342.977 333.095 342.977 335.356 342.977Z" fill="#F27405"/>
<path d="M121.372 70.1367H140.622V89.3633C140.622 90.7227 141.751 91.8555 143.11 91.8555C144.469 91.8555 145.602 90.7227 145.602 89.3633V70.1367H164.848C166.208 70.1367 167.341 69.0039 167.341 67.6445C167.341 66.2891 166.208 65.1562 164.848 65.1562H145.602V45.9258C145.602 44.5703 144.469 43.4375 143.11 43.4375C141.751 43.4375 140.622 44.5703 140.622 45.9258V65.1562H121.372C120.012 65.1562 118.884 66.2891 118.884 67.6445C118.884 69.0039 120.012 70.1367 121.372 70.1367Z" fill="#F29F05"/>
<path d="M466.239 367.41H485.485V386.414C485.485 387.773 486.618 388.902 487.977 388.902C489.337 388.902 490.466 387.773 490.466 386.414V367.184H509.716C511.075 367.184 512.204 366.055 512.204 364.695C512.204 363.34 511.075 362.207 509.716 362.207H490.466V342.977C490.466 341.621 489.337 340.488 487.977 340.488C486.618 340.488 485.485 341.621 485.485 342.977V362.207H466.239C464.88 362.207 463.747 363.34 463.747 364.695C463.747 366.055 464.88 367.41 466.239 367.41Z" fill="#F37706"/>
<path d="M371.36 50.6797H386.532V65.8359C386.532 66.9688 387.438 67.8711 388.571 67.8711C389.704 67.8711 390.606 66.9688 390.606 65.8359V50.6797H405.778C406.911 50.6797 407.817 49.7734 407.817 48.6406C407.817 47.5117 406.911 46.6055 405.778 46.6055H390.606V31.4492C390.606 30.3164 389.704 29.4141 388.571 29.4141C387.438 29.4141 386.532 30.3164 386.532 31.4492V46.6055H371.36C370.227 46.6055 369.321 47.5117 369.321 48.6406C369.548 49.7734 370.454 50.6797 371.36 50.6797Z" fill="#FFB01E"/>
<defs>
<linearGradient id="paint0_linear" x1="550.7" y1="230.574" x2="75" y2="117.5" gradientUnits="userSpaceOnUse">
<stop stop-color="#FEAA1C"/>
<stop offset="1" stop-color="#F27405"/>
</linearGradient>
</defs>
</svg>
